<svg xmlns="http://www.w3.org/2000/svg" version="1.1" xmlns:xlink="http://www.w3.org/1999/xlink" xmlns:svgjs="http://svgjs.dev/svgjs" width="1500" height="1687" viewBox="0 0 1500 1687"><g transform="matrix(1,0,0,1,0,0.0005646763887625639)"><svg viewBox="0 0 320 360" data-background-color="#331e6d" preserveAspectRatio="xMidYMid meet" height="1687" width="1500" xmlns="http://www.w3.org/2000/svg" xmlns:xlink="http://www.w3.org/1999/xlink"><g id="tight-bounds" transform="matrix(1,0,0,1,0,-0.00012049999997998384)"><svg viewBox="0 0 320 360" height="360" width="320"><g><svg></svg></g><g><svg viewBox="0 0 320 360" height="360" width="320"><g><path transform="translate(-76.07486,-56.3133) scale(4.7215,4.7215)" d="M24.473 37.513l0.604-1.109c4.807-8.829 14.163-14.821 24.923-14.82 10.763 0 20.122 5.995 24.928 14.827l0.604 1.11 1.731-6.637 6.572 1.686-0.562-1.015c-6.478-11.702-18.949-19.628-33.273-19.628-14.324 0-26.794 7.926-33.274 19.628l-0.562 1.014 6.579-1.685zM50 12.927c13.521 0 25.324 7.262 31.785 18.085l-5.238-1.343-1.359 5.212c-5.129-8.559-14.483-14.297-25.188-14.297-10.701 0-20.053 5.735-25.182 14.289l-1.358-5.205-5.245 1.343c6.461-10.823 18.265-18.084 31.785-18.084zM75.527 62.587l-0.604 1.109c-4.807 8.83-14.163 14.821-24.923 14.821-10.763 0-20.122-5.994-24.928-14.827l-0.604-1.109-1.731 6.636-6.573-1.686 0.562 1.015c6.479 11.701 18.949 19.628 33.274 19.628 14.324 0 26.795-7.927 33.274-19.628l0.562-1.014-6.579 1.685zM50 87.174c-13.521 0-25.324-7.262-31.785-18.085l5.237 1.344 1.36-5.212c5.129 8.557 14.483 14.296 25.188 14.296 10.702 0 20.053-5.735 25.183-14.29l1.357 5.205 5.245-1.343c-6.461 10.822-18.264 18.085-31.785 18.085z" fill="#ffcf31" fill-rule="nonzero" stroke="none" stroke-width="1" stroke-linecap="butt" stroke-linejoin="miter" stroke-miterlimit="10" stroke-dasharray="" stroke-dashoffset="0" font-family="none" font-weight="none" font-size="none" text-anchor="none" style="mix-blend-mode: normal" data-fill-palette-color="tertiary"></path></g><g transform="matrix(1,0,0,1,106.82717589704123,90)"><svg viewBox="0 0 106.34564820591756 180" height="180" width="106.34564820591756"><g><svg viewBox="0 0 106.34564820591756 180" height="180" width="106.34564820591756"><g><svg viewBox="0 0 191.9674355495251 324.9229186323373" height="180" width="106.34564820591756"><g transform="matrix(1,0,0,1,0,144.92291863233729)"><svg viewBox="0 0 191.9674355495251 180" height="180" width="191.9674355495251"><g id="textblocktransform"><svg viewBox="0 0 191.9674355495251 180" height="180" width="191.9674355495251" id="textblock"><g><svg viewBox="0 0 191.9674355495251 180" height="180" width="191.9674355495251"><g transform="matrix(1,0,0,1,0,0)"><svg width="191.9674355495251" viewBox="1.51 -35.99 38.38 35.99" height="180" data-palette-color="#ffcf31"><path d="M39.89-35.99Q39.26-35.99 38.87-34.86 38.48-33.74 38.21-32.03 37.94-30.32 37.82-28.25 37.7-26.17 37.67-24.27 37.65-22.36 37.65-20.87 37.65-19.38 37.65-18.85L37.65-18.85Q37.65-15.97 37.6-13.11 37.55-10.25 37.55-7.32L37.55-7.32Q37.55-6.93 37.55-5.83 37.55-4.74 37.6-3.52 37.65-2.29 37.82-1.27 37.99-0.24 38.28 0L38.28 0 29.69 0Q29.05-0.73 28.49-1.54 27.93-2.34 27.34-3.13L27.34-3.13 23.63-8.11Q20.51-12.3 17.33-16.46 14.16-20.61 10.79-24.66L10.79-24.66Q10.6-23.05 10.55-21.41 10.5-19.78 10.45-18.16L10.45-18.16Q10.35-15.67 10.3-13.18 10.25-10.69 10.25-8.2L10.25-8.2Q10.25-7.81 10.25-6.57 10.25-5.32 10.3-3.96 10.35-2.59 10.47-1.42 10.6-0.24 10.84 0L10.84 0 2.29 0Q2.59-0.29 2.78-1.88 2.98-3.47 3.08-5.71 3.17-7.96 3.22-10.57 3.27-13.18 3.27-15.58 3.27-17.97 3.25-19.82 3.22-21.68 3.22-22.41L3.22-22.41Q3.22-22.85 3.25-23.97 3.27-25.1 3.25-26.56 3.22-28.03 3.15-29.64 3.08-31.25 2.88-32.62 2.69-33.98 2.34-34.91 2-35.84 1.51-35.99L1.51-35.99 13.33-35.99Q13.18-35.94 13.18-35.6L13.18-35.6Q13.18-34.77 14.28-32.71 15.38-30.66 17.11-28 18.85-25.34 20.92-22.36 23-19.38 24.93-16.7 26.86-14.01 28.39-11.94 29.93-9.86 30.62-8.98L30.62-8.98Q30.71-12.35 30.69-15.7 30.66-19.04 30.66-22.41L30.66-22.41Q30.66-22.85 30.69-23.97 30.71-25.1 30.69-26.56 30.66-28.03 30.59-29.64 30.52-31.25 30.32-32.62 30.13-33.98 29.79-34.91 29.44-35.84 28.96-35.99L28.96-35.99 39.89-35.99Z" opacity="1" transform="matrix(1,0,0,1,0,0)" fill="#ffcf31" class="wordmark-text-0" data-fill-palette-color="primary" id="text-0"></path></svg></g></svg></g></svg></g></svg></g><g transform="matrix(1,0,0,1,36.66578018995929,0)"><svg viewBox="0 0 118.63587516960652 118.65659863233728" height="118.65659863233728" width="118.63587516960652"><g><svg xmlns="http://www.w3.org/2000/svg" viewBox="1.999997808046063 2 48.00000219195394 48.008386892240246" x="0" y="0" height="118.65659863233728" width="118.63587516960652" class="icon-icon-0" data-fill-palette-color="accent" id="icon-0"><path d="M14 26A12 12 0 0 0 2 38a12 12 0 0 0 22.74 5.36 11.15 11.15 0 0 0 0.54-1.28A11.75 11.75 0 0 0 26 38 12 12 0 0 0 14 26Zm0 21a9 9 0 1 1 9-9A9 9 0 0 1 14 47Z" fill="#ffcf31" data-fill-palette-color="accent"></path><path d="M18 37.5H14.5V33a1.5 1.5 0 0 0-3 0v6A1.5 1.5 0 0 0 13 40.5h5a1.5 1.5 0 0 0 0-3Z" fill="#ffcf31" data-fill-palette-color="accent"></path><path d="M17.57 12h0.86A2.82 2.82 0 0 0 21 9V5a2.82 2.82 0 0 0-2.57-3h-0.86A2.82 2.82 0 0 0 15 5V9A2.82 2.82 0 0 0 17.57 12Z" fill="#ffcf31" data-fill-palette-color="accent"></path><path d="M37.57 12h0.86A2.82 2.82 0 0 0 41 9V5a2.82 2.82 0 0 0-2.57-3h-0.86A2.82 2.82 0 0 0 35 5V9A2.82 2.82 0 0 0 37.57 12Z" fill="#ffcf31" data-fill-palette-color="accent"></path><path d="M46 6H43a0.5 0.5 0 0 0-0.5 0.5V9a4 4 0 0 1-4 4h-1a4 4 0 0 1-4-4V6.5A0.5 0.5 0 0 0 33 6H23a0.5 0.5 0 0 0-0.5 0.5V9a4 4 0 0 1-4 4h-1a4 4 0 0 1-4-4V6.5A0.5 0.5 0 0 0 13 6H10a4 4 0 0 0-4 4V26.52a12.91 12.91 0 0 1 2-1.17V18.5a0.5 0.5 0 0 1 0.5-0.5h39a0.5 0.5 0 0 1 0.5 0.5V40a2 2 0 0 1-2 2H27.42a13.78 13.78 0 0 1-0.77 2H46a4 4 0 0 0 4-4V10A4 4 0 0 0 46 6Z" fill="#ffcf31" data-fill-palette-color="accent"></path></svg></g></svg></g><g></g></svg></g></svg></g></svg></g></svg></g><defs></defs></svg><rect width="320" height="360" fill="none" stroke="none" visibility="hidden"></rect></g></svg></g></svg>